<svg width="500" height="300" viewBox="0 0 500 300" fill="none" xmlns="http://www.w3.org/2000/svg">
<path fill-rule="evenodd" clip-rule="evenodd" d="M366 206.704L354.018 218.685L355.433 220.099L366 209.532L376.567 220.099L377.982 218.685L366 206.704Z" fill="black"/>
<path fill-rule="evenodd" clip-rule="evenodd" d="M316 225.296L327.982 213.315L326.567 211.901L316 222.468L305.433 211.901L304.018 213.315L316 225.296Z" fill="black"/>
<path fill-rule="evenodd" clip-rule="evenodd" d="M275.297 216L263.315 204.018L261.901 205.433L272.468 216L261.901 226.567L263.315 227.982L275.297 216Z" fill="black"/>
<path fill-rule="evenodd" clip-rule="evenodd" d="M206.703 216L218.685 227.982L220.099 226.567L209.532 216L220.099 205.433L218.685 204.018L206.703 216Z" fill="black"/>
<mask id="mask0_1274_28464" style="mask-type:alpha" maskUnits="userSpaceOnUse" x="450" y="150" width="32" height="32">
<path d="M482 182L482 150L450 150L450 182L482 182Z" fill="#FF0000"/>
</mask>
<g mask="url(#mask0_1274_28464)">
<path fill-rule="evenodd" clip-rule="evenodd" d="M475.625 161.338L464.03 172.933L456.182 165.085L457.691 163.576L464.03 169.916L474.117 159.829L475.625 161.338Z" fill="black"/>
</g>
<path d="M419.107 162.74L415.5 166.39L412.892 163.75L411.781 164.874L415.5 168.638L420.217 163.864L419.107 162.74Z" fill="black"/>
<path d="M404.531 172.155V156.5H427.456V172.155" stroke="black" stroke-width="1.7" stroke-miterlimit="10"/>
<path d="M402.5 175.5H429.5" stroke="black" stroke-width="1.7" stroke-miterlimit="10"/>
<path fill-rule="evenodd" clip-rule="evenodd" d="M366 154.219C359.498 154.219 354.219 159.498 354.219 166C354.219 172.502 359.498 177.781 366 177.781C368.033 177.781 369.944 177.265 371.612 176.365L372.431 177.872C370.52 178.913 368.326 179.5 366 179.5C358.547 179.5 352.5 173.453 352.5 166C352.5 158.547 358.547 152.5 366 152.5C373.453 152.5 379.5 158.547 379.5 166C379.5 170.116 377.649 173.807 374.747 176.284C374.616 176.396 374.494 176.497 374.363 176.598L373.301 175.253C373.412 175.162 373.524 175.071 373.635 174.98C376.173 172.816 377.781 169.6 377.781 166C377.781 159.498 372.502 154.219 366 154.219Z" fill="black"/>
<path d="M363.586 161.902L366.178 168.259H366.291L368.883 161.902H370.807V170.653H369.305V164.626H369.223L366.795 170.622H365.674L363.247 164.595H363.175V170.642H361.652V161.902H363.586Z" fill="black"/>
<path d="M329 178.441H303V180H329V178.441Z" fill="black"/>
<path d="M322.485 158.604C322.397 157.815 322.112 156.538 321.22 155.359C320.405 154.287 318.835 153 316 153C313.165 153 311.595 154.287 310.78 155.359C309.888 156.538 309.603 157.815 309.515 158.604H303V177.337H304.57V160.164H309.475V162.552H311.045V160.164H320.955V162.552H322.525V160.164H327.43V177.347H329V158.604H322.485ZM320.906 158.604H311.094C311.202 157.883 311.477 157.025 312.036 156.294C312.909 155.144 314.244 154.559 316 154.559C317.756 154.559 319.091 155.144 319.964 156.294C320.523 157.025 320.798 157.883 320.906 158.604Z" fill="black"/>
<path d="M308.26 169.807C308.26 168.521 309.035 167.663 310.251 167.663C311.468 167.663 312.253 168.521 312.243 169.807C312.243 171.084 311.468 171.942 310.251 171.942C309.045 171.942 308.26 171.084 308.26 169.807ZM310.261 171.162C310.928 171.162 311.262 170.558 311.262 169.797C311.262 169.037 310.928 168.433 310.261 168.433C309.584 168.433 309.251 169.037 309.251 169.797C309.251 170.558 309.584 171.162 310.261 171.162Z" fill="black"/>
<path d="M312.828 169.822C312.828 168.546 313.613 167.678 314.8 167.678C315.821 167.678 316.704 168.312 316.704 169.764V170.066H313.79C313.809 170.768 314.221 171.187 314.859 171.187C315.291 171.187 315.575 171.012 315.703 170.758H316.664C316.488 171.47 315.821 171.947 314.859 171.947C313.593 171.947 312.828 171.119 312.828 169.822ZM315.762 169.403C315.762 168.838 315.379 168.429 314.81 168.429C314.221 168.429 313.829 168.877 313.79 169.403H315.762Z" fill="black"/>
<path d="M317.459 167.724H318.411V168.406H318.46C318.607 167.928 319.009 167.655 319.49 167.655C319.598 167.655 319.755 167.665 319.843 167.675V168.572C319.755 168.542 319.549 168.513 319.392 168.513C318.852 168.513 318.45 168.893 318.45 169.41V171.846H317.469V167.724H317.459Z" fill="black"/>
<path d="M321.701 169.452C321.995 169.433 322.584 169.403 322.77 169.394V169.062C322.77 168.653 322.505 168.419 322.015 168.419C321.573 168.419 321.308 168.614 321.23 168.916H320.288C320.356 168.214 320.994 167.678 322.034 167.678C322.819 167.678 323.732 168 323.732 169.101V171.869H322.799V171.294H322.77C322.584 171.645 322.201 171.947 321.544 171.947C320.749 171.947 320.15 171.518 320.15 170.7C320.15 169.764 320.925 169.501 321.701 169.452ZM321.799 171.226C322.397 171.226 322.77 170.836 322.77 170.368V170.027C322.593 170.037 322.054 170.066 321.858 170.086C321.396 170.125 321.102 170.32 321.102 170.68C321.092 171.051 321.387 171.226 321.799 171.226Z" fill="black"/>
<path d="M259.279 159.914H261.091V172.159H259.279L259.279 159.914Z" fill="black"/>
<path fill-rule="evenodd" clip-rule="evenodd" d="M257.466 154.589L260.133 156.12L262.799 154.589L278.372 154.589L280.186 154.589V156.402L280.186 172.957H278.372L278.372 156.402L263.283 156.402L261.035 157.692L260.133 158.211L259.23 157.692L256.983 156.402L253.626 156.402L253.626 175.602H256.983L259.23 174.312L260.133 173.794L261.035 174.312L263.283 175.602H274.324V175.619H280.186V177.416H278.372H262.799L260.133 175.885L257.466 177.416H253.626H251.812L251.813 175.602L251.813 156.402L251.813 154.589L253.626 154.589L257.466 154.589Z" fill="#C4C4C4"/>
<path fill-rule="evenodd" clip-rule="evenodd" d="M260.133 158.211L256.983 156.402L253.626 156.402L253.626 175.602H256.983L260.133 173.794L263.283 175.602H274.324V175.619H280.186V177.416H262.799L260.133 175.885L257.466 177.416H251.812V154.589H257.466L260.133 156.12L262.799 154.589H280.186L280.186 172.957H278.372L278.372 156.402L263.283 156.402L260.133 158.211Z" fill="black"/>
<path fill-rule="evenodd" clip-rule="evenodd" d="M228.799 162.639H203.199V160.826H228.799V162.639Z" fill="black"/>
<path fill-rule="evenodd" clip-rule="evenodd" d="M206.933 153.201H206.401L206.142 153.665L201.875 161.291L201.566 161.843L201.978 162.324L215.309 177.897L215.998 178.702L216.687 177.897L230.022 162.324L230.433 161.843L230.124 161.291L229.865 160.827H227.787L228.233 161.625L215.998 175.913L203.766 161.625L207.465 155.014H216H224.535L226.295 158.161H228.373L225.857 153.665L225.598 153.201H225.066H216H206.933Z" fill="black"/>
<rect x="215.199" y="153.201" width="1.6" height="23.4667" fill="black"/>
<path d="M153 179.004H154.1H177.9H179V177.984H153V179.004Z" fill="black" stroke="black" stroke-width="0.5" stroke-miterlimit="10"/>
<path d="M177.9 153H154.1H153V154.1V176.36H154.1V154.1H177.9V176.36H179V154.1V153H177.9Z" fill="black" stroke="black" stroke-width="0.5" stroke-miterlimit="10"/>
<path d="M170.12 166.66L171 166L170.12 165.34L164.14 160.86L163 160V161.32V170.68V172L164.14 171.14L169.02 167.48L168.14 166.83L164.14 169.83V162.17L169.24 166L170.12 166.66Z" fill="black" stroke="black" stroke-width="0.5" stroke-miterlimit="10"/>
<path fill-rule="evenodd" clip-rule="evenodd" d="M116 153.572C109.137 153.572 103.573 159.136 103.573 165.999C103.573 172.862 109.137 178.426 116 178.426C118.144 178.426 120.158 177.883 121.917 176.929L122.781 178.523C120.764 179.618 118.453 180.239 116 180.239C108.135 180.239 101.76 173.863 101.76 165.999C101.76 158.134 108.135 151.759 116 151.759C123.864 151.759 130.24 158.134 130.24 165.999C130.24 170.345 128.291 174.238 125.224 176.848C125.09 176.962 124.954 177.074 124.815 177.183L123.692 175.759C123.813 175.664 123.931 175.567 124.048 175.467C126.729 173.186 128.426 169.791 128.426 165.999C128.426 159.136 122.863 153.572 116 153.572Z" fill="black"/>
<path fill-rule="evenodd" clip-rule="evenodd" d="M111.627 160.667H113.44V165.094L118.56 165.094V160.667H120.374V171.334H118.56V166.907L113.44 166.907V171.334H111.627V160.667Z" fill="black"/>
<path d="M72 153H79V160" stroke="black" stroke-width="1.5"/>
<path d="M72 179H79V172" stroke="black" stroke-width="1.5"/>
<path d="M60 153H53V160" stroke="black" stroke-width="1.5"/>
<path d="M60 179H53V172" stroke="black" stroke-width="1.5"/>
<rect x="57.75" y="157.75" width="16.5" height="16.5" stroke="black" stroke-width="1.5"/>
<path fill-rule="evenodd" clip-rule="evenodd" d="M16 154.814C9.82212 154.814 4.81395 159.822 4.81395 166C4.81395 172.178 9.82212 177.186 16 177.186C17.93 177.186 19.7434 176.698 21.3261 175.839L22.1911 177.434C20.3495 178.433 18.2396 179 16 179C8.8203 179 3 173.18 3 166C3 158.82 8.8203 153 16 153C23.1797 153 29 158.82 29 166C29 169.968 27.2212 173.521 24.4207 175.904C24.2984 176.009 24.1742 176.11 24.0481 176.21L22.9242 174.786C23.0328 174.7 23.1398 174.613 23.2451 174.523L23.8329 175.214L23.2451 174.523C25.6579 172.47 27.186 169.414 27.186 166C27.186 159.822 22.1779 154.814 16 154.814Z" fill="black"/>
<path fill-rule="evenodd" clip-rule="evenodd" d="M15.9976 160.882C15.2882 160.882 14.7087 161.485 14.7087 162.222H13.8594C13.8594 160.997 14.8186 160 15.9976 160C17.1766 160 18.1358 160.997 18.1358 162.222C18.1358 163.301 17.3964 164.194 16.4272 164.402V165.782H15.568V163.55H15.9976C16.707 163.55 17.2865 162.948 17.2865 162.211C17.2865 161.474 16.707 160.882 15.9976 160.882Z" fill="black" stroke="black" stroke-width="0.5" stroke-miterlimit="10"/>
<path fill-rule="evenodd" clip-rule="evenodd" d="M15.995 166.176L21.1307 168.803V169.924H21.99V168.242L15.995 165.18L10 168.242V169.924H10.8593V168.803L15.995 166.176ZM10 171.107V172H10.8593H21.1407H22V171.107H10Z" fill="black" stroke="black" stroke-width="0.5" stroke-miterlimit="10"/>
<path fill-rule="evenodd" clip-rule="evenodd" d="M314.934 29.3333V2.66663H317.067V29.3333H314.934Z" fill="black"/>
<path fill-rule="evenodd" clip-rule="evenodd" d="M302.665 14.9333L329.332 14.9333L329.332 17.0667L302.665 17.0667L302.665 14.9333Z" fill="black"/>
<path fill-rule="evenodd" clip-rule="evenodd" d="M63.3327 22C68.1192 22 71.9993 18.1198 71.9993 13.3333C71.9993 8.54682 68.1192 4.66663 63.3327 4.66663C58.5462 4.66663 54.666 8.54682 54.666 13.3333C54.666 18.1198 58.5462 22 63.3327 22ZM63.3327 24C69.2237 24 73.9993 19.2243 73.9993 13.3333C73.9993 7.44226 69.2237 2.66663 63.3327 2.66663C57.4416 2.66663 52.666 7.44226 52.666 13.3333C52.666 19.2243 57.4416 24 63.3327 24Z" fill="black"/>
<path fill-rule="evenodd" clip-rule="evenodd" d="M77.9226 29.3371L69.5352 20.9502L70.9494 19.536L79.3368 27.9229L77.9226 29.3371Z" fill="black"/>
<g opacity="0.2">
<path d="M179.5 16C179.5 23.4558 173.456 29.5 166 29.5C158.544 29.5 152.5 23.4558 152.5 16C152.5 8.54416 158.544 2.5 166 2.5C173.456 2.5 179.5 8.54416 179.5 16Z" fill="black"/>
<path fill-rule="evenodd" clip-rule="evenodd" d="M170.243 21.6568L160.344 11.7574L161.758 10.3431L171.657 20.2426L170.243 21.6568Z" fill="white"/>
<path fill-rule="evenodd" clip-rule="evenodd" d="M160.343 20.2426L170.242 10.3431L171.656 11.7573L161.757 21.6568L160.343 20.2426Z" fill="white"/>
</g>
<path fill-rule="evenodd" clip-rule="evenodd" d="M109.307 10.8562C107.362 8.91056 105.106 6.65444 103.864 5.41229L105.278 3.99807C106.521 5.24033 108.776 7.49653 110.722 9.44214L114.301 13.0228C114.301 13.0228 114.301 13.0228 113.594 13.7298L112.887 14.4368L109.307 10.8562Z" fill="black"/>
<path fill-rule="evenodd" clip-rule="evenodd" d="M123.045 24.5948C121.052 22.6021 118.748 20.2989 117.506 19.0566L118.92 17.6424C120.162 18.8846 122.466 21.1877 124.459 23.1804L128.135 26.8551L127.428 27.5624C126.721 28.2696 126.721 28.2695 126.721 28.2695L123.045 24.5948Z" fill="black"/>
<path fill-rule="evenodd" clip-rule="evenodd" d="M126.531 3.99805L127.945 5.41226L105.279 28.0787C105.279 28.0789 105.279 28.0789 104.572 27.3718C103.865 26.6647 103.865 26.6646 103.865 26.6645L126.531 3.99805Z" fill="black"/>
</svg>
